<?xml version="1.0" encoding="utf-8"?>
<!-- Generator: Adobe Illustrator 27.1.1, SVG Export Plug-In . SVG Version: 6.00 Build 0)  -->
<svg version="1.1" id="Layer_1" xmlns="http://www.w3.org/2000/svg" xmlns:xlink="http://www.w3.org/1999/xlink" x="0px" y="0px"
	 viewBox="0 0 1920 1033" style="enable-background:new 0 0 1920 1033;" xml:space="preserve">
<style type="text/css">
	.st0{fill-rule:evenodd;clip-rule:evenodd;}
</style>
<polygon points="369.2,147.5 369.2,331.8 590.8,331.8 590.8,479.3 369.2,479.3 369.2,663.6 590.8,663.6 590.8,811.1 0,811.1 
	0,663.6 221.5,663.6 221.5,479.3 0,479.3 0,331.8 221.5,331.8 221.5,147.5 369.2,0 1920,0 1920,147.5 "/>
<path d="M0,221.2L221.5,0L0,0L0,221.2z"/>
<path class="st0" d="M1255.4,514.2v3.8c0-0.6,0-1.3,0-1.9C1255.4,515.5,1255.4,514.9,1255.4,514.2z"/>
<path d="M1107.7,221.2v39.5c-43.4-25.1-93.9-39.5-147.7-39.5c-163.1,0-295.4,132-295.4,294.9S796.9,811.1,960,811.1
	c53.8,0,104.2-14.4,147.7-39.5v113.2H0v147.5h1107.7l147.7-147.5V221.2H1107.7z M960,663.6c-81.6,0-147.7-66-147.7-147.5
	S878.4,368.7,960,368.7s147.7,66,147.7,147.5S1041.6,663.6,960,663.6z"/>
<polygon points="1920,221.2 1920,442.4 1772.3,442.4 1772.3,368.7 1476.9,368.7 1476.9,663.6 1772.3,663.6 1772.3,589.9 1920,589.9 
	1920,811.1 1476.9,811.1 1329.2,663.6 1329.2,221.2 "/>
<path d="M1920,884.8v147.5h-590.8V884.8H1920z"/>
</svg>
