<?xml version="1.0" encoding="UTF-8"?><svg id="flat" xmlns="http://www.w3.org/2000/svg" viewBox="0 0 638.92 359.17"><defs><style>.cls-1{fill:#5e81ac;}.cls-2{fill:none;stroke:#eceff4;stroke-miterlimit:10;stroke-width:8px;}</style></defs><g id="outline"><path class="cls-2" d="M384.18,89.84v20.53c-16.33-12.86-36.93-20.53-59.33-20.53-53.02,0-96,42.98-96,96s42.98,96,96,96c22.4,0,43-7.67,59.33-20.53v57.2H14.77v36.66H384.18l36.67-36.66V89.84h-36.67Zm-59.33,155.33c-32.77,0-59.34-26.56-59.34-59.33s26.57-59.33,59.34-59.33,59.33,26.56,59.33,59.33-26.57,59.33-59.33,59.33Z"/><polygon class="cls-2" points="634.92 89.84 634.92 149.17 598.25 149.17 598.25 126.51 480.18 126.51 480.18 245.17 598.25 245.17 598.25 222.51 634.92 222.51 634.92 281.84 480.18 281.84 443.51 245.17 443.51 89.84 634.92 89.84"/><polygon class="cls-2" points="128.81 53.17 128.81 130.84 206.18 130.84 206.18 167.51 128.81 167.51 128.81 245.17 206.18 245.17 206.18 281.84 14.77 281.84 14.77 245.17 92.14 245.17 92.14 167.51 14.77 167.51 14.77 130.84 92.14 130.84 92.14 53.17 128.81 16.5 634.92 16.5 634.92 53.17 128.81 53.17"/></g><g id="fill"><path class="cls-1" d="M369.91,73.84v20.53c-16.33-12.86-36.93-20.53-59.33-20.53-53.02,0-96,42.98-96,96s42.98,96,96,96c22.4,0,43-7.67,59.33-20.53v57.2H.5v36.66H369.91l36.67-36.66V73.84h-36.67Zm-59.33,155.33c-32.77,0-59.34-26.56-59.34-59.33s26.57-59.33,59.34-59.33,59.33,26.56,59.33,59.33-26.57,59.33-59.33,59.33Z"/><polygon class="cls-1" points="620.65 73.84 620.65 133.17 583.98 133.17 583.98 110.51 465.91 110.51 465.91 229.17 583.98 229.17 583.98 206.51 620.65 206.51 620.65 265.84 465.91 265.84 429.24 229.17 429.24 73.84 620.65 73.84"/><polygon class="cls-1" points="114.54 37.17 114.54 114.84 191.91 114.84 191.91 151.51 114.54 151.51 114.54 229.17 191.91 229.17 191.91 265.84 .5 265.84 .5 229.17 77.87 229.17 77.87 151.51 .5 151.51 .5 114.84 77.87 114.84 77.87 37.17 114.54 .5 620.65 .5 620.65 37.17 114.54 37.17"/></g></svg>